<svg xmlns="http://www.w3.org/2000/svg" viewBox="0 0 180 180" role="img">
  <g fill="none" stroke="#0d6448" stroke-linecap="round" stroke-linejoin="round">
    <circle cx="90" cy="93" r="29" fill="#0d6448" opacity=".17" stroke-width="7"/>
    <ellipse cx="90" cy="52" rx="20" ry="17" fill="#0d6448" opacity=".13" stroke-width="6"/>
    <path d="M68 76 33 43M61 94 18 90M68 113 30 145M83 121l-13 44M112 76l35-33M119 94l43-4M112 113l38 32M97 121l13 44" stroke-width="7"/>
    <path d="M73 57c8 6 26 6 34 0M75 89c9 8 21 8 30 0M74 101c11 9 23 9 34 0" stroke-width="5"/>
    <circle cx="82" cy="50" r="4" fill="#0d6448" stroke="none"/>
    <circle cx="98" cy="50" r="4" fill="#0d6448" stroke="none"/>
  </g>
</svg>
